<svg width="180" height="170" viewBox="0 0 180 170" fill="none" xmlns="http://www.w3.org/2000/svg">
<path d="M90.8999 97.3C86.5666 97.3 83.2667 95.8335 81 92.9001C78.7333 89.9668 77.6001 85.5666 77.6001 79.7V54.6001H84.7V78.4001C84.7 86.9335 87.6668 91.2 93.6001 91.2C96.4668 91.2 99.1666 90.2668 101.7 88.4001C104.233 86.6001 106.133 84.1001 107.4 80.9001V54.6001H114.4V87.8C114.4 89.4667 115.167 90.3335 116.7 90.4001V96.5C115.9 96.6333 115.267 96.7 114.8 96.7C114.333 96.7666 113.9 96.8 113.5 96.8C112.1 96.8 110.933 96.3667 110 95.5C109.067 94.7 108.567 93.6668 108.5 92.4001L108.3 87.5C106.433 90.7 104 93.1334 101 94.8C97.9333 96.4667 94.5666 97.3 90.8999 97.3Z" fill="#00B2EF"/>
<path d="M148.4 60.8C144.867 60.9334 141.733 61.8333 139 63.5C136.333 65.2333 134.433 67.6333 133.3 70.7V96.5H126.2V54.6001H132.8V64.3C134.267 61.4334 136.167 59.1 138.5 57.3C140.833 55.5 143.367 54.5 146.1 54.3C146.633 54.3 147.067 54.3 147.4 54.3C147.8 54.3 148.133 54.3335 148.4 54.4001V60.8Z" fill="#00B2EF"/>
<path d="M157.6 96.5V60.2H151.9V54.6001H157.6V53.7C157.6 48.5666 158.767 44.5 161.1 41.5C163.367 38.5667 166.5 37.1001 170.5 37.1001C172.1 37.1001 173.7 37.3334 175.3 37.8C176.967 38.2667 178.433 38.9 179.7 39.7L177.9 44.9001C177.167 44.3668 176.233 43.9334 175.1 43.6001C174.033 43.3334 172.967 43.2 171.9 43.2C169.567 43.2 167.767 44.0667 166.5 45.8C165.3 47.5334 164.7 50.1 164.7 53.5V54.6001H175.8V60.2H164.7V96.5H157.6Z" fill="#00B2EF"/>
<path d="M107.3 113.7V100.7H108.6V112.6H116.1V113.7H107.3Z" fill="#7F3493"/>
<path d="M121.4 113.9C120.733 113.9 120.1 113.767 119.5 113.5C118.967 113.233 118.467 112.867 118 112.4C117.6 112 117.3 111.5 117.1 110.9C116.833 110.3 116.7 109.667 116.7 109C116.7 108.333 116.833 107.7 117.1 107.1C117.3 106.5 117.633 105.967 118.1 105.5C118.5 105.033 119 104.667 119.6 104.4C120.133 104.133 120.733 104 121.4 104C122.133 104 122.767 104.133 123.3 104.4C123.9 104.667 124.433 105.033 124.9 105.5C125.3 105.967 125.6 106.5 125.8 107.1C126.067 107.7 126.2 108.333 126.2 109C126.2 109.667 126.1 110.3 125.9 110.9C125.633 111.5 125.3 112 124.9 112.4C124.433 112.867 123.933 113.233 123.4 113.5C122.8 113.767 122.133 113.9 121.4 113.9ZM118 109C118 109.533 118.1 110.033 118.3 110.5C118.433 110.967 118.667 111.367 119 111.7C119.333 112.033 119.7 112.3 120.1 112.5C120.5 112.7 120.933 112.8 121.4 112.8C121.933 112.8 122.4 112.7 122.8 112.5C123.2 112.3 123.567 112.033 123.9 111.7C124.233 111.367 124.5 110.967 124.7 110.5C124.833 110.033 124.9 109.533 124.9 109C124.9 108.467 124.833 107.967 124.7 107.5C124.5 107.033 124.233 106.6 123.9 106.2C123.567 105.867 123.2 105.6 122.8 105.4C122.4 105.2 121.933 105.1 121.4 105.1C120.933 105.1 120.5 105.2 120.1 105.4C119.7 105.6 119.333 105.867 119 106.2C118.667 106.6 118.433 107.033 118.3 107.5C118.1 107.967 118 108.467 118 109Z" fill="#7F3493"/>
<path d="M132.1 113.9C131.433 113.9 130.833 113.733 130.3 113.4C129.767 113.133 129.3 112.8 128.9 112.4C128.5 111.933 128.2 111.4 128 110.8C127.733 110.2 127.6 109.6 127.6 109C127.6 108.333 127.733 107.7 128 107.1C128.2 106.5 128.5 105.967 128.9 105.5C129.3 105.033 129.767 104.667 130.3 104.4C130.833 104.133 131.433 104 132.1 104C132.9 104 133.6 104.2 134.2 104.6C134.8 105 135.333 105.533 135.8 106.2V104.2H136.9V113.8C136.9 114.467 136.767 115.033 136.5 115.5C136.233 116.033 135.9 116.467 135.5 116.8C135.1 117.133 134.6 117.4 134 117.6C133.467 117.733 132.867 117.8 132.2 117.8C131.067 117.8 130.167 117.6 129.5 117.2C128.833 116.8 128.3 116.3 127.9 115.7L128.7 115.1C129.033 115.7 129.533 116.133 130.2 116.4C130.8 116.667 131.467 116.8 132.2 116.8C132.667 116.8 133.1 116.733 133.5 116.6C133.9 116.467 134.267 116.3 134.6 116.1C134.933 115.833 135.2 115.5 135.4 115.1C135.533 114.7 135.6 114.267 135.6 113.8V111.9C135.267 112.5 134.767 112.967 134.1 113.3C133.5 113.7 132.833 113.9 132.1 113.9ZM132.5 112.8C132.833 112.8 133.2 112.733 133.6 112.6C133.933 112.467 134.233 112.3 134.5 112.1C134.833 111.833 135.067 111.567 135.2 111.3C135.4 111.033 135.533 110.733 135.6 110.4V107.5C135.467 107.167 135.3 106.833 135.1 106.5C134.833 106.233 134.567 106 134.3 105.8C133.967 105.6 133.633 105.433 133.3 105.3C132.967 105.167 132.633 105.1 132.3 105.1C131.767 105.1 131.3 105.2 130.9 105.4C130.5 105.667 130.133 105.967 129.8 106.3C129.533 106.7 129.3 107.133 129.1 107.6C128.967 108.067 128.9 108.533 128.9 109C128.9 109.533 129 110.033 129.2 110.5C129.4 110.967 129.667 111.367 130 111.7C130.267 112.033 130.633 112.3 131.1 112.5C131.5 112.7 131.967 112.8 132.5 112.8Z" fill="#7F3493"/>
<path d="M139.6 102.2V100.3H140.9V102.2H139.6ZM139.6 113.7V104.2H140.8V113.7H139.6Z" fill="#7F3493"/>
<path d="M146.8 113.9C146.067 113.9 145.333 113.767 144.6 113.5C143.933 113.3 143.333 112.967 142.8 112.5L143.4 111.6C143.933 112.067 144.467 112.4 145 112.6C145.533 112.867 146.133 113 146.8 113C147.533 113 148.133 112.833 148.6 112.5C149.067 112.167 149.3 111.733 149.3 111.2C149.3 110.933 149.233 110.7 149.1 110.5C148.967 110.3 148.8 110.133 148.6 110C148.333 109.867 148.033 109.767 147.7 109.7C147.367 109.567 146.933 109.433 146.4 109.3C145.867 109.167 145.4 109.033 145 108.9C144.6 108.767 144.267 108.633 144 108.5C143.733 108.3 143.533 108.1 143.4 107.9C143.267 107.633 143.2 107.3 143.2 106.9C143.2 106.433 143.3 106 143.5 105.6C143.7 105.267 143.967 104.967 144.3 104.7C144.633 104.5 145 104.333 145.4 104.2C145.867 104.067 146.333 104 146.8 104C147.533 104 148.2 104.133 148.8 104.4C149.4 104.6 149.9 104.9 150.3 105.3L149.6 106C149.267 105.667 148.867 105.4 148.4 105.2C147.867 105 147.333 104.9 146.8 104.9C146.467 104.9 146.133 104.933 145.8 105C145.533 105.067 145.3 105.2 145.1 105.4C144.9 105.533 144.733 105.7 144.6 105.9C144.467 106.167 144.4 106.433 144.4 106.7C144.4 106.967 144.433 107.167 144.5 107.3C144.633 107.5 144.8 107.667 145 107.8C145.2 107.867 145.433 107.967 145.7 108.1C146.033 108.167 146.4 108.267 146.8 108.4C147.4 108.533 147.933 108.667 148.4 108.8C148.867 108.933 149.267 109.1 149.6 109.3C149.867 109.5 150.1 109.733 150.3 110C150.433 110.267 150.5 110.633 150.5 111.1C150.5 111.967 150.167 112.633 149.5 113.1C148.833 113.633 147.933 113.9 146.8 113.9Z" fill="#7F3493"/>
<path d="M157.1 113.3C157.033 113.3 156.933 113.333 156.8 113.4C156.667 113.467 156.5 113.533 156.3 113.6C156.167 113.667 155.967 113.733 155.7 113.8C155.5 113.8 155.267 113.8 155 113.8C154.733 113.8 154.467 113.767 154.2 113.7C153.933 113.633 153.733 113.533 153.6 113.4C153.4 113.267 153.233 113.067 153.1 112.8C153.033 112.6 153 112.333 153 112V105.2H151.6V104.2H153V100.9H154.2V104.2H156.4V105.2H154.2V111.7C154.267 112.033 154.4 112.267 154.6 112.4C154.8 112.6 155.067 112.7 155.4 112.7C155.733 112.7 156.033 112.633 156.3 112.5C156.567 112.367 156.733 112.3 156.8 112.3L157.1 113.3Z" fill="#7F3493"/>
<path d="M158.7 102.2V100.3H160V102.2H158.7ZM158.7 113.7V104.2H159.9V113.7H158.7Z" fill="#7F3493"/>
<path d="M162 108.9C162 108.233 162.133 107.6 162.4 107C162.6 106.4 162.933 105.867 163.4 105.4C163.8 105 164.3 104.667 164.9 104.4C165.5 104.133 166.133 104 166.8 104C167.733 104 168.533 104.2 169.2 104.6C169.867 105 170.367 105.567 170.7 106.3L169.5 106.7C169.233 106.167 168.867 105.767 168.4 105.5C167.933 105.233 167.4 105.1 166.8 105.1C166.267 105.1 165.8 105.2 165.4 105.4C165 105.6 164.633 105.867 164.3 106.2C163.967 106.533 163.733 106.933 163.6 107.4C163.4 107.867 163.3 108.367 163.3 108.9C163.3 109.433 163.4 109.933 163.6 110.4C163.8 110.933 164.033 111.367 164.3 111.7C164.633 112.033 165.033 112.3 165.5 112.5C165.9 112.7 166.333 112.8 166.8 112.8C167.133 112.8 167.433 112.767 167.7 112.7C168.033 112.633 168.3 112.5 168.5 112.3C168.767 112.167 169 112 169.2 111.8C169.4 111.6 169.533 111.4 169.6 111.2L170.8 111.5C170.667 111.9 170.467 112.233 170.2 112.5C169.933 112.767 169.633 113 169.3 113.2C168.967 113.467 168.6 113.633 168.2 113.7C167.733 113.833 167.3 113.9 166.9 113.9C166.167 113.9 165.5 113.767 164.9 113.5C164.3 113.233 163.8 112.867 163.4 112.4C163 112 162.667 111.5 162.4 110.9C162.133 110.3 162 109.633 162 108.9Z" fill="#7F3493"/>
<path d="M176 113.9C175.2 113.9 174.467 113.767 173.8 113.5C173.067 113.3 172.433 112.967 171.9 112.5L172.5 111.6C173.033 112.067 173.567 112.4 174.1 112.6C174.7 112.867 175.3 113 175.9 113C176.7 113 177.333 112.833 177.8 112.5C178.267 112.167 178.5 111.733 178.5 111.2C178.5 110.933 178.433 110.7 178.3 110.5C178.167 110.3 177.967 110.133 177.7 110C177.5 109.867 177.2 109.767 176.8 109.7C176.467 109.567 176.067 109.433 175.6 109.3C175.067 109.167 174.6 109.033 174.2 108.9C173.8 108.767 173.467 108.633 173.2 108.5C172.933 108.3 172.733 108.1 172.6 107.9C172.467 107.633 172.4 107.3 172.4 106.9C172.4 106.433 172.5 106 172.7 105.6C172.833 105.267 173.067 104.967 173.4 104.7C173.733 104.5 174.133 104.333 174.6 104.2C175 104.067 175.467 104 176 104C176.733 104 177.4 104.133 178 104.4C178.6 104.6 179.067 104.9 179.4 105.3L178.8 106C178.467 105.667 178.033 105.4 177.5 105.2C176.967 105 176.433 104.9 175.9 104.9C175.567 104.9 175.267 104.933 175 105C174.733 105.067 174.5 105.2 174.3 105.4C174.033 105.533 173.867 105.7 173.8 105.9C173.667 106.167 173.6 106.433 173.6 106.7C173.6 106.967 173.633 107.167 173.7 107.3C173.767 107.5 173.9 107.667 174.1 107.8C174.3 107.867 174.567 107.967 174.9 108.1C175.167 108.167 175.533 108.267 176 108.4C176.6 108.533 177.133 108.667 177.6 108.8C178.067 108.933 178.433 109.1 178.7 109.3C179.033 109.5 179.267 109.733 179.4 110C179.6 110.267 179.7 110.633 179.7 111.1C179.7 111.967 179.367 112.633 178.7 113.1C178.033 113.633 177.133 113.9 176 113.9Z" fill="#7F3493"/>
<path d="M17.8 37.7C23.4 25.2 30.9 16.6 35.8 11.8V0C35.8 0 11.2001 17.2999 3.1001 53.7L4.5 61.9001L12.2 53.7C13.5333 48.1666 15.4 42.8333 17.8 37.7Z" fill="#F7931D"/>
<path d="M66.5 62.7C66.2 59.7 64.6999 57.4 59.3999 53.7C58.6999 53.7 3.1001 53.7 3.1001 53.7C2.43343 56.5666 1.9 59.5666 1.5 62.7H66.5Z" fill="#8DC63F"/>
<path d="M69.8999 62.7C69.5666 59.7666 69.1 56.7666 68.5 53.7C68.2 53.7 64.4999 53.7 59.3999 53.7C60.1332 56.5666 60.7001 59.5666 61.1001 62.7C61.1001 62.7 62.3999 70.3 61.8999 82.2C61.6999 90.6 60.5667 99.0001 58.5 107.4C55 122.2 48.3 139 35.8 155.1V170C35.8 170 77.6999 125.8 69.8999 62.7Z" fill="#7F3493"/>
<path d="M62.8 35.9001C52.3 11.7001 35.8 0 35.8 0V11.8C40.4 16.4 47.4 24.4001 53 35.9001H62.8Z" fill="#EE4036"/>
<path d="M35.8 155.1C23.3 139 16.6001 122.2 13.1001 107.4C11.0334 99.0001 9.86676 90.6 9.6001 82.2C9.6001 81.6 9.6001 81.0333 9.6001 80.5H0.699951C1.59995 133.9 35.6 169.9 35.8 170V155.1Z" fill="#00B2EF"/>
</svg>
