<svg width="159" height="151" viewBox="0 0 159 151" fill="none" xmlns="http://www.w3.org/2000/svg">
<path fill-rule="evenodd" clip-rule="evenodd" d="M80.0998 86.1001C76.2332 86.1001 73.2998 84.8 71.2998 82.2C69.2998 79.6 68.2998 75.7334 68.2998 70.6001V48.3999H74.4998V69.3999C74.4998 76.9332 77.1331 80.7 82.3998 80.7C84.9331 80.7 87.3332 79.8666 89.5998 78.2C91.8665 76.6 93.5332 74.4001 94.5998 71.6001V48.3999H100.8V77.7C100.8 79.1666 101.466 79.9333 102.8 80V85.3999C102.066 85.4666 101.5 85.5 101.1 85.5C100.7 85.5667 100.333 85.6001 99.9998 85.6001C98.7332 85.6001 97.6998 85.2333 96.8998 84.5C96.0331 83.7667 95.5998 82.8667 95.5998 81.8L95.3998 77.3999C93.7998 80.1999 91.6331 82.3334 88.8998 83.8C86.2331 85.3334 83.2998 86.1001 80.0998 86.1001Z" fill="#00B2EF"/>
<path fill-rule="evenodd" clip-rule="evenodd" d="M130.8 53.8999C127.666 53.9666 124.9 54.7667 122.5 56.3C120.1 57.7667 118.433 59.8668 117.5 62.6001V85.3999H111.2V48.3999H117V57C118.266 54.4 119.966 52.3334 122.1 50.8C124.166 49.2 126.366 48.3001 128.7 48.1001C129.166 48.1001 129.566 48.1001 129.9 48.1001C130.233 48.1001 130.533 48.1333 130.8 48.2V53.8999Z" fill="#00B2EF"/>
<path d="M138.9 85.3999V53.3H133.9V48.3999H138.9V47.6001C138.9 43.0668 139.9 39.4999 141.9 36.8999C143.967 34.2999 146.733 33 150.2 33C151.667 33 153.133 33.2001 154.6 33.6001C156 34.0001 157.267 34.5333 158.4 35.2L156.8 39.8C156.133 39.3334 155.333 38.9666 154.4 38.7C153.4 38.4333 152.433 38.3 151.5 38.3C149.433 38.3 147.867 39.0668 146.8 40.6001C145.667 42.2001 145.1 44.4666 145.1 47.3999V48.3999H155V53.3H145.1V85.3999H138.9Z" fill="#00B2EF"/>
<path d="M94.5 100.6V89.1001H95.7V99.6001H102.3V100.6H94.5Z" fill="#FEFEFE"/>
<path d="M107 100.7C106.4 100.7 105.833 100.6 105.3 100.4C104.766 100.133 104.333 99.7999 104 99.3999C103.6 98.9999 103.3 98.5333 103.1 98C102.9 97.4667 102.8 96.9332 102.8 96.3999C102.8 95.7999 102.9 95.2333 103.1 94.7C103.3 94.1666 103.6 93.7 104 93.3C104.4 92.9 104.833 92.5667 105.3 92.3C105.833 92.1 106.4 92 107 92C107.6 92 108.166 92.1 108.7 92.3C109.166 92.5667 109.6 92.9 110 93.3C110.4 93.7 110.7 94.1666 110.9 94.7C111.1 95.2333 111.2 95.7999 111.2 96.3999C111.2 96.9332 111.1 97.4667 110.9 98C110.7 98.5333 110.4 98.9999 110 99.3999C109.666 99.7999 109.233 100.133 108.7 100.4C108.166 100.6 107.6 100.7 107 100.7ZM103.9 96.3999C103.9 96.8666 104 97.3 104.2 97.7C104.333 98.1 104.533 98.4667 104.8 98.8C105.066 99.0667 105.4 99.3 105.8 99.5C106.2 99.6333 106.6 99.7 107 99.7C107.4 99.7 107.8 99.6333 108.2 99.5C108.533 99.3 108.866 99.0667 109.2 98.8C109.466 98.4667 109.666 98.1 109.8 97.7C110 97.3 110.1 96.8334 110.1 96.3C110.1 95.9 110 95.4667 109.8 95C109.666 94.6 109.466 94.2332 109.2 93.8999C108.866 93.6332 108.533 93.4 108.2 93.2C107.8 93 107.4 92.8999 107 92.8999C106.6 92.8999 106.2 93 105.8 93.2C105.466 93.4 105.133 93.6667 104.8 94C104.533 94.2667 104.333 94.6 104.2 95C104 95.4667 103.9 95.9332 103.9 96.3999Z" fill="#FEFEFE"/>
<path d="M116.4 100.7C115.8 100.7 115.267 100.567 114.8 100.3C114.333 100.033 113.933 99.7 113.6 99.3C113.2 98.9 112.933 98.4667 112.8 98C112.6 97.4667 112.5 96.9332 112.5 96.3999C112.5 95.7999 112.567 95.2333 112.7 94.7C112.9 94.1666 113.167 93.7 113.5 93.3C113.9 92.9 114.333 92.5667 114.8 92.3C115.267 92.1 115.8 92 116.4 92C117.133 92 117.767 92.1667 118.3 92.5C118.833 92.9 119.267 93.3666 119.6 93.8999V92.1001H120.6V100.6C120.6 101.2 120.5 101.7 120.3 102.1C120.033 102.567 119.733 102.967 119.4 103.3C119 103.567 118.567 103.767 118.1 103.9C117.567 104.1 117.033 104.2 116.5 104.2C115.5 104.2 114.7 104 114.1 103.6C113.5 103.267 113.033 102.833 112.7 102.3L113.4 101.7C113.733 102.233 114.167 102.633 114.7 102.9C115.233 103.167 115.833 103.3 116.5 103.3C116.9 103.3 117.267 103.233 117.6 103.1C118 103.033 118.333 102.867 118.6 102.6C118.867 102.4 119.1 102.133 119.3 101.8C119.433 101.467 119.5 101.067 119.5 100.6V98.8999C119.167 99.4332 118.733 99.8666 118.2 100.2C117.6 100.533 117 100.7 116.4 100.7ZM116.7 99.7C117.033 99.7 117.367 99.6668 117.7 99.6001C117.967 99.4668 118.233 99.3001 118.5 99.1001C118.767 98.9001 119 98.6666 119.2 98.3999C119.333 98.1332 119.433 97.9 119.5 97.7V95.1001C119.367 94.7668 119.2 94.4666 119 94.2C118.8 93.9333 118.567 93.7 118.3 93.5C118.033 93.3667 117.767 93.2334 117.5 93.1001C117.167 92.9668 116.867 92.8999 116.6 92.8999C116.133 92.8999 115.7 93 115.3 93.2C114.967 93.4 114.667 93.6667 114.4 94C114.133 94.3333 113.933 94.7001 113.8 95.1001C113.667 95.5001 113.6 95.9332 113.6 96.3999C113.6 96.8666 113.667 97.3 113.8 97.7C114 98.1 114.233 98.4667 114.5 98.8C114.767 99.0667 115.1 99.3 115.5 99.5C115.9 99.6333 116.3 99.7 116.7 99.7Z" fill="#FEFEFE"/>
<path d="M123 90.3999V88.7H124.1V90.3999H123ZM123 100.6V92.1001H124.1V100.6H123Z" fill="#FEFEFE"/>
<path d="M129.4 100.7C128.733 100.7 128.066 100.6 127.4 100.4C126.8 100.2 126.266 99.9 125.8 99.5L126.3 98.7C126.766 99.1 127.266 99.4001 127.8 99.6001C128.266 99.8001 128.766 99.8999 129.3 99.8999C130.033 99.8999 130.6 99.7667 131 99.5C131.4 99.2333 131.6 98.8334 131.6 98.3C131.6 98.0334 131.533 97.8333 131.4 97.7C131.333 97.5666 131.166 97.4334 130.9 97.3C130.7 97.1667 130.466 97.0667 130.2 97C129.866 96.8667 129.466 96.7666 129 96.7C128.533 96.5666 128.133 96.4334 127.8 96.3C127.4 96.2334 127.1 96.0999 126.9 95.8999C126.633 95.7666 126.466 95.5999 126.4 95.3999C126.266 95.1332 126.2 94.8333 126.2 94.5C126.2 94.1 126.3 93.7332 126.5 93.3999C126.633 93.0666 126.833 92.8001 127.1 92.6001C127.433 92.4001 127.766 92.2334 128.1 92.1001C128.5 92.0334 128.933 92 129.4 92C130 92 130.566 92.1 131.1 92.3C131.633 92.5 132.066 92.7668 132.4 93.1001L131.9 93.8C131.566 93.4667 131.166 93.2 130.7 93C130.3 92.8667 129.833 92.8 129.3 92.8C129.033 92.8 128.766 92.8332 128.5 92.8999C128.3 92.9666 128.1 93.0666 127.9 93.2C127.7 93.3333 127.533 93.5 127.4 93.7C127.333 93.9 127.3 94.1332 127.3 94.3999C127.3 94.5999 127.333 94.7666 127.4 94.8999C127.466 95.0332 127.566 95.1667 127.7 95.3C127.9 95.3667 128.133 95.4668 128.4 95.6001C128.666 95.6668 129 95.7334 129.4 95.8C129.933 95.9334 130.4 96.0666 130.8 96.2C131.2 96.3333 131.533 96.5 131.8 96.7C132.066 96.8333 132.266 97.0334 132.4 97.3C132.6 97.5667 132.7 97.8666 132.7 98.2C132.7 99 132.4 99.6 131.8 100C131.2 100.467 130.4 100.7 129.4 100.7Z" fill="#FEFEFE"/>
<path d="M138.5 100.2C138.433 100.2 138.333 100.233 138.2 100.3C138.067 100.367 137.933 100.4 137.8 100.4C137.6 100.467 137.4 100.533 137.2 100.6C137 100.667 136.8 100.7 136.6 100.7C136.333 100.7 136.1 100.667 135.9 100.6C135.7 100.533 135.5 100.433 135.3 100.3C135.167 100.167 135.067 99.9666 135 99.7C134.867 99.5 134.8 99.2667 134.8 99V93H133.6V92.1001H134.8V89.3H135.9V92.1001H137.8V93H135.9V98.7C135.9 99.0333 136 99.2666 136.2 99.3999C136.4 99.5332 136.633 99.6001 136.9 99.6001C137.233 99.6001 137.533 99.5667 137.8 99.5C138 99.3667 138.133 99.3 138.2 99.3L138.5 100.2Z" fill="#FEFEFE"/>
<path d="M139.9 90.3999V88.7H141V90.3999H139.9ZM139.9 100.6V92.1001H141V100.6H139.9Z" fill="#FEFEFE"/>
<path d="M142.8 96.3C142.8 95.7 142.9 95.1334 143.1 94.6001C143.3 94.0668 143.6 93.6 144 93.2C144.333 92.8666 144.766 92.5667 145.3 92.3C145.833 92.1 146.4 92 147 92C147.8 92 148.5 92.1667 149.1 92.5C149.7 92.9 150.166 93.4 150.5 94L149.4 94.3C149.133 93.9 148.8 93.5667 148.4 93.3C148 93.0334 147.533 92.8999 147 92.8999C146.533 92.8999 146.133 93 145.8 93.2C145.4 93.4 145.066 93.6332 144.8 93.8999C144.533 94.2332 144.333 94.6 144.2 95C144 95.4 143.9 95.8334 143.9 96.3C143.9 96.7667 144 97.2333 144.2 97.7C144.333 98.1 144.533 98.4667 144.8 98.8C145.133 99.0667 145.466 99.3 145.8 99.5C146.2 99.6333 146.6 99.7 147 99.7C147.266 99.7 147.533 99.6668 147.8 99.6001C148.066 99.5334 148.3 99.4334 148.5 99.3C148.766 99.1667 148.966 99.0332 149.1 98.8999C149.3 98.6999 149.433 98.5 149.5 98.3L150.6 98.6001C150.466 98.9334 150.266 99.2333 150 99.5C149.8 99.7 149.533 99.9001 149.2 100.1C148.933 100.3 148.6 100.467 148.2 100.6C147.866 100.667 147.5 100.7 147.1 100.7C146.433 100.7 145.866 100.6 145.4 100.4C144.866 100.133 144.4 99.7999 144 99.3999C143.6 98.9999 143.3 98.5333 143.1 98C142.9 97.4667 142.8 96.9 142.8 96.3Z" fill="#FEFEFE"/>
<path d="M155.1 100.7C154.433 100.7 153.8 100.6 153.2 100.4C152.533 100.2 151.967 99.9 151.5 99.5L152 98.7C152.533 99.1 153.033 99.4001 153.5 99.6001C153.967 99.8001 154.5 99.8999 155.1 99.8999C155.767 99.8999 156.3 99.7667 156.7 99.5C157.1 99.2333 157.3 98.8334 157.3 98.3C157.3 98.0334 157.233 97.8333 157.1 97.7C157.033 97.5666 156.9 97.4334 156.7 97.3C156.5 97.1667 156.233 97.0667 155.9 97C155.567 96.8667 155.2 96.7666 154.8 96.7C154.267 96.5666 153.833 96.4334 153.5 96.3C153.167 96.2334 152.867 96.0999 152.6 95.8999C152.4 95.7666 152.233 95.5999 152.1 95.3999C151.967 95.1332 151.9 94.8333 151.9 94.5C151.9 94.1 152 93.7332 152.2 93.3999C152.333 93.0666 152.567 92.8001 152.9 92.6001C153.167 92.4001 153.5 92.2334 153.9 92.1001C154.233 92.0334 154.633 92 155.1 92C155.767 92 156.367 92.1 156.9 92.3C157.367 92.5 157.767 92.7668 158.1 93.1001L157.6 93.8C157.267 93.4667 156.9 93.2 156.5 93C156.033 92.8667 155.567 92.8 155.1 92.8C154.767 92.8 154.467 92.8332 154.2 92.8999C154 92.9666 153.8 93.0666 153.6 93.2C153.4 93.3333 153.233 93.5 153.1 93.7C153.033 93.9 153 94.1332 153 94.3999C153 94.5999 153.033 94.7666 153.1 94.8999C153.167 95.0332 153.3 95.1667 153.5 95.3C153.633 95.3667 153.833 95.4668 154.1 95.6001C154.367 95.6668 154.7 95.7334 155.1 95.8C155.633 95.9334 156.1 96.0666 156.5 96.2C156.9 96.3333 157.233 96.5 157.5 96.7C157.833 96.8333 158.067 97.0334 158.2 97.3C158.333 97.5667 158.4 97.8666 158.4 98.2C158.4 99 158.1 99.6 157.5 100C156.9 100.467 156.1 100.7 155.1 100.7Z" fill="#FEFEFE"/>
<path d="M15.5 33.5C20.5 22.4 27.1 14.8001 31.4 10.6001V0.199951C31.4 0.199951 9.7 15.5001 2.5 47.6001L3.8 54.8L10.6 47.6001C11.8 42.7334 13.4333 38.0333 15.5 33.5Z" fill="#F7931D"/>
<path fill-rule="evenodd" clip-rule="evenodd" d="M58.5001 55.5C58.2001 52.9 56.9001 50.8001 52.3001 47.6001C51.6001 47.6001 2.50009 47.6001 2.50009 47.6001C1.96676 50.1334 1.5001 52.7667 1.1001 55.5H58.5001Z" fill="#8DC63F"/>
<path d="M61.4999 55.5C61.2332 52.9 60.8332 50.2668 60.2999 47.6001C59.9999 47.6001 56.7999 47.6001 52.1999 47.6001C52.8666 50.1334 53.3999 52.7667 53.7999 55.5H53.6999C53.6999 55.5 54.8999 62.2 54.4999 72.8C54.2332 80.2 53.1999 87.5666 51.3999 94.8999C48.2999 108 42.3999 122.8 31.3999 137.1V150.2C31.3999 150.2 68.3999 111.2 61.4999 55.5Z" fill="#8E52A0"/>
<path d="M55.1999 31.8999C45.9999 10.4999 31.3999 0.199951 31.3999 0.199951V10.6001C35.4999 14.6001 41.6999 21.6999 46.5999 31.8999H55.1999Z" fill="#EE4036"/>
<path d="M31.3999 137.1C20.3999 122.8 14.4999 108 11.3999 94.8999C9.5999 87.5666 8.56658 80.2 8.29991 72.8C8.29991 72.2667 8.29991 71.7333 8.29991 71.2H0.399902C1.1999 118.3 31.2999 150.1 31.3999 150.2V137.1Z" fill="#00B2EF"/>
</svg>
