<svg width="32" height="32" viewBox="0 0 32 32" fill="none" xmlns="http://www.w3.org/2000/svg">
<path d="M30.1001 16.4C29.4001 16.4 28.7998 16.9999 28.7998 17.7999C28.7998 20.5999 27.3002 23.3001 24.7002 25.0001L23.8999 25.5001L24.2998 27.5001L21.3999 26.5001L21.1001 26.6002C20.3001 26.7336 19.4668 26.7999 18.6001 26.7999C17.9001 26.7999 17.2998 27.4003 17.2998 28.2003C17.2998 29.0003 17.9001 29.6002 18.6001 29.6002C19.5334 29.6002 20.4331 29.4999 21.2998 29.2999L27.8999 31.7003L27 26.7999C28.3 25.7999 29.3001 24.6003 30.1001 23.2003C31.0001 21.5003 31.5 19.6003 31.5 17.7003C31.5 17.0003 30.9001 16.4 30.1001 16.4Z" fill="#F7931D"/>
<path d="M26.2998 18.0001C26.9665 16.4668 27.2998 14.8336 27.2998 13.1002C27.2998 11.4336 26.9665 9.83326 26.2998 8.29993C25.5665 6.83326 24.5999 5.53336 23.3999 4.40002C20.7999 2.10002 17.4999 0.799927 13.8999 0.799927C10.2999 0.799927 7 2.10002 4.5 4.40002C3.23333 5.53336 2.26676 6.83326 1.6001 8.29993C0.866764 9.83326 0.5 11.4336 0.5 13.1002C0.5 15.1002 1 17.0999 2 18.7999C2.8 20.2999 3.9002 21.5002 5.2002 22.6002L4.2998 27.6002L11.2002 25.2003C12.0669 25.4003 12.9666 25.5001 13.8999 25.5001C17.4999 25.5001 20.7999 24.2 23.3999 21.9C24.5999 20.7667 25.5665 19.4668 26.2998 18.0001ZM13.8999 22.7003C13.0332 22.7003 12.1999 22.6 11.3999 22.4H11L7.8999 23.4L8.2998 21.2999L7.5 20.7999C4.8 18.9999 3.2002 16.2002 3.2002 13.1002C3.2002 7.90022 7.9999 3.60022 13.8999 3.60022C19.7999 3.60022 24.6001 7.90022 24.6001 13.1002C24.6001 18.4002 19.7999 22.7003 13.8999 22.7003Z" fill="#F7931D"/>
<path d="M6.2998 13.8998C6.8998 14.3998 7.7999 14.3998 8.3999 13.8998C8.8999 13.2998 8.8999 12.3998 8.3999 11.8998C7.7999 11.2998 6.8998 11.2998 6.2998 11.8998C5.7998 12.3998 5.7998 13.2998 6.2998 13.8998Z" fill="#F7931D"/>
<path d="M12.7 13.8998C13.2 14.3998 14.1 14.3998 14.7 13.8998C15.3 13.2998 15.3 12.3998 14.7 11.8998C14.1 11.2998 13.2 11.2998 12.7 11.8998C12.1 12.3998 12.1 13.2998 12.7 13.8998Z" fill="#F7931D"/>
<path d="M19 13.8998C19.6 14.3998 20.5 14.3998 21 13.8998C21.6 13.2998 21.6 12.3998 21 11.8998C20.5 11.2998 19.6 11.2998 19 11.8998C18.5 12.3998 18.5 13.2998 19 13.8998Z" fill="#F7931D"/>
</svg>
